<?xml version="1.0" encoding="UTF-8"?>
<svg width="200" height="200" viewBox="0 0 200 200" xmlns="http://www.w3.org/2000/svg">
  <!-- Background Circle -->
  <circle cx="100" cy="100" r="90" fill="#4A90E2"/>
  
  <!-- Multiple A layers creating depth (archive layers) -->
  <path d="M105 45 L145 165 L125 165 L117 140 L93 140 L85 165 L65 165 L105 45 Z" fill="#F8F7F2" opacity="0.6"/>
  <path d="M102 42 L142 162 L122 162 L114 137 L90 137 L82 162 L62 162 L102 42 Z" fill="#2D3748" opacity="0.3"/>
  <path d="M100 40 L140 160 L120 160 L112 135 L88 135 L80 160 L60 160 L100 40 Z" fill="#FFFFFF"/>
  
  <!-- Cross bar with small organizing dots -->
  <rect x="88" y="115" width="24" height="4" fill="#4A90E2"/>
  <circle cx="92" cy="117" r="1.5" fill="#FFFFFF"/>
  <circle cx="100" cy="117" r="1.5" fill="#FFFFFF"/>
  <circle cx="108" cy="117" r="1.5" fill="#FFFFFF"/>
</svg>